<svg version="1" xmlns="http://www.w3.org/2000/svg" width="266.667" height="248" viewBox="0 0 200.000000 186.000000"><path d="M0 93v93h200V0H0v93zM94.5 2c-.3.5-1.2 1-1.8 1-.7 0-.6-.4.3-1C94.9.8 95.3.8 94.5 2zm22 4.8c-.3.3-1.1 0-1.8-.7-.9-1-.8-1.1.6-.5 1 .3 1.5.9 1.2 1.2zm-33 .2c-.3.5-1.2 1-1.8 1-.7 0-.6-.4.3-1 1.9-1.2 2.3-1.2 1.5 0zm42.5 4.5c0 .3-1.8-.4-4-1.5s-4-2.3-4-2.5c0-.3 1.8.4 4 1.5s4 2.3 4 2.5zm5 3.1c0 .2-.9 0-2-.6s-2-1.3-2-1.6c0-.2.9 0 2 .6s2 1.3 2 1.6zm-60-1.2c0 .2-.7.7-1.6 1-.8.3-1.2.2-.9-.4.6-1 2.5-1.4 2.5-.6zm82.9 13.9c.8 1 .7 1.4-.2 1.4-.8 0-1.4-.6-1.4-1.4 0-.7.1-1.3.2-1.3.2 0 .8.6 1.4 1.3zM45 28.5c-.7.8-1.7 1.5-2.3 1.5-.6 0-.2-.7.9-1.5 2.5-1.9 3-1.9 1.4 0zm-13 8.9c0 .2-.7.7-1.6 1-.8.3-1.2.2-.9-.4.6-1 2.5-1.4 2.5-.6zm53.4 7.5C92.8 52.4 93.5 55 88 55h-3v29h30V53h7.4c5.8 0 7.5.3 8 1.6.3.9.6 18.2.6 38.5V130h2.9c5.5 0 4.8 2.1-3 9.2-4.1 3.7-8.1 6.8-8.9 6.8-2.2 0-14.9-13-14.3-14.6.3-.8 2-1.4 3.9-1.4h3.4v-30H85v15.4c0 13.1-.2 15.5-1.6 16-2.8 1.1-12 .6-13.2-.6-.9-.9-1.2-10.8-1.2-38.5V55h-3c-5.8 0-5-2.8 3.1-10.1 4.1-3.8 7.9-6.8 8.4-6.9.6 0 4.1 3.1 7.9 6.9zM17.7 62.2c-.3.7-.5.2-.5-1.2s.2-1.9.5-1.3c.2.7.2 1.9 0 2.5zm-1 22c-.2 1.3-.4.5-.4-1.7-.1-2.2.1-3.2.4-2.3.2 1 .2 2.8 0 4zm0 20c-.2 1.3-.4.3-.4-2.2s.2-3.5.4-2.3c.2 1.3.2 3.3 0 4.5zm2 26c-.3.8-.6.5-.6-.6-.1-1.1.2-1.7.5-1.3.3.3.4 1.2.1 1.9zM37.5 151c.3.6-.1.7-.9.4-1.8-.7-2.1-1.4-.7-1.4.6 0 1.3.4 1.6 1z"/></svg>